<?xml version="1.0" standalone="no"?>
<!DOCTYPE svg PUBLIC "-//W3C//DTD SVG 20010904//EN"
 "http://www.w3.org/TR/2001/REC-SVG-20010904/DTD/svg10.dtd">
<svg version="1.0" xmlns="http://www.w3.org/2000/svg"
 width="260.000000pt" height="260.000000pt" viewBox="0 0 260.000000 260.000000"
 preserveAspectRatio="xMidYMid meet">
<metadata>
Created by potrace 1.11, written by Peter Selinger 2001-2013
</metadata>
<g transform="translate(0.000000,260.000000) scale(0.100000,-0.100000)"
fill="#000000" stroke="none">
<path d="M1736 2502 c2 -56 -13 -89 -61 -130 -50 -45 -82 -59 -180 -82 -141
-33 -243 -94 -361 -215 -72 -74 -142 -177 -186 -272 -28 -61 -32 -78 -32 -163
-1 -138 20 -226 77 -323 45 -76 157 -184 178 -171 4 2 19 28 32 57 62 135 201
204 265 131 48 -54 23 -99 -146 -258 -60 -56 -66 -70 -54 -122 9 -42 9 -62 -3
-143 l-7 -53 45 5 c75 9 237 56 356 104 110 44 163 83 213 159 54 82 54 84 79
203 25 120 24 203 -2 304 -11 45 -23 91 -25 102 -2 11 -11 54 -19 95 -43 212
-48 262 -40 382 14 196 11 319 -8 355 -16 30 -61 65 -102 77 -18 5 -20 1 -19
-42z"/>
<path d="M1115 2188 c-68 -39 -210 -155 -250 -204 -70 -86 -138 -235 -160
-349 -41 -213 -35 -271 50 -452 52 -109 89 -149 206 -217 112 -66 172 -113
203 -160 l26 -39 16 39 c23 54 22 155 -1 191 -10 15 -62 72 -117 127 -121 120
-168 187 -204 291 -24 68 -28 96 -29 190 0 97 3 119 29 189 35 94 120 224 210
321 36 39 66 73 66 78 0 10 -22 8 -45 -5z"/>
<path d="M810 948 c0 -79 -52 -262 -128 -448 -105 -259 -111 -275 -116 -307
-7 -36 11 -103 28 -103 21 0 125 105 141 143 8 18 23 80 35 137 25 122 33 139
96 206 67 69 129 115 194 144 87 38 89 42 39 89 -24 22 -73 55 -109 72 -36 17
-86 48 -112 70 -26 21 -51 39 -57 39 -6 0 -11 -19 -11 -42z"/>
<path d="M1215 715 c-137 -37 -243 -90 -297 -149 -39 -41 -51 -65 -102 -205
-52 -142 -80 -191 -140 -251 -51 -51 -55 -60 -25 -60 24 0 108 60 130 92 42
62 136 173 206 243 137 138 276 267 316 293 20 13 37 31 37 38 0 18 -57 17
-125 -1z"/>
</g>
</svg>
